<svg width="57" height="57" viewBox="0 0 57 57" fill="none" xmlns="http://www.w3.org/2000/svg">
<g clip-path="url(#clip0_1923_146)">
<path d="M22.3327 13.7868C24.7284 12.9883 26.8107 12.5024 28.6957 12.3032C30.5429 12.1076 31.9321 12.0168 33.0672 12.0168C34.2815 12.0168 35.1791 12.1201 36.2084 12.2876L36.4997 10.439C36.4997 10.439 33.6578 9.56553 29.9258 9.8707L29.6329 8.86461C30.7915 8.61917 31.6611 7.59096 31.6611 6.35911C31.6611 4.94446 30.5142 3.79761 29.0996 3.79761C27.6849 3.79761 26.538 4.94458 26.538 6.35911C26.538 7.59061 27.4073 8.61894 28.5657 8.8645L28.8917 9.98387C24.9296 10.5312 21.7744 12.0793 21.7744 12.0793L22.3327 13.7868Z" fill="#336AEA"/>
<path d="M11.0907 21.3544C11.1833 21.2363 11.2743 21.1236 11.3646 21.0141L10.6091 20.4642L9.42447 19.5979C9.35473 19.6933 7.49554 21.4029 6.02664 24.5676C5.96283 24.4676 5.89053 24.3706 5.8074 24.2789C5.36705 23.7932 4.75031 23.5519 3.96998 23.5652C3.95834 23.5653 3.94693 23.5654 3.93564 23.5654C3.44778 23.5654 3.11747 23.4003 2.89764 23.2062C3.11432 22.9304 3.24473 22.5834 3.24473 22.2054C3.24473 21.3096 2.51831 20.583 1.62236 20.583C0.726303 20.583 0 21.3095 0 22.2054C0 23.1015 0.726303 23.8278 1.62236 23.8278C1.76138 23.8278 1.89551 23.8084 2.02429 23.7756C2.42388 24.2196 3.05855 24.6063 3.98593 24.5896C4.46214 24.5819 4.80864 24.7046 5.04547 24.964C5.31477 25.2589 5.40489 25.6818 5.43179 26.0007C5.43027 26.0048 5.42876 26.0086 5.42713 26.0128C4.36795 28.8988 4.67277 32.4882 4.67277 32.4882L7.23474 32.5903C7.28678 31.2826 7.47494 28.997 8.13604 27.1789C9.41341 23.6678 11.0097 21.4645 11.077 21.3724L11.0907 21.3544Z" fill="#336AEA"/>
<path d="M55.3771 14.1616C54.4812 14.1616 53.7548 14.8878 53.7548 15.784C53.7548 15.9232 53.7742 16.0577 53.8073 16.1866C53.3642 16.5864 52.9785 17.221 52.9929 18.1473C53.0004 18.6234 52.878 18.97 52.6186 19.207C52.4156 19.3924 52.1517 19.4927 51.903 19.5461C49.9919 16.878 47.6418 15.2427 47.6418 15.2427L45.8018 17.2163C47.1935 18.4842 48.6122 20.0672 49.9954 22.0445C50.949 23.4077 51.93 25.1726 52.7498 26.9275L55.2343 25.7515C55.2343 25.7515 54.1002 22.9482 52.5021 20.4365C52.7805 20.3375 53.0604 20.1895 53.3038 19.9688C53.7896 19.5286 54.0298 18.9103 54.0176 18.1314C54.0096 17.6245 54.178 17.284 54.3765 17.0591C54.6523 17.2758 54.9992 17.4063 55.3772 17.4063C56.2732 17.4063 56.9996 16.6799 56.9996 15.784C56.9994 14.8878 56.2731 14.1616 55.3771 14.1616Z" fill="#336AEA"/>
<path d="M48.9316 36.4796C45.5143 38.1433 39.8874 40.3426 32.4865 41.3729C29.5808 41.7775 26.762 41.9287 24.1726 41.9287C20.8015 41.9287 17.8336 41.6725 15.5474 41.385C12.9381 41.0568 10.8279 40.6534 9.66361 40.3737V40.3735C9.66361 40.3731 9.64405 40.3725 9.6416 40.372C9.94619 41.3375 10.3068 42.2731 10.733 43.1677C10.7356 43.1732 10.7342 43.1789 10.7369 43.1843C10.7474 43.2063 10.7563 43.2283 10.767 43.2503C10.8193 43.3594 10.8717 43.468 10.926 43.5762C10.9775 43.6787 11.0297 43.7807 11.0829 43.8822C11.0968 43.9087 11.1102 43.9353 11.1241 43.9617C11.8589 45.3467 12.7385 46.6158 13.7446 47.7171C17.2343 51.5388 20.7917 52.1392 20.8275 52.1449L20.8826 52.1536L20.9357 52.1711C20.9664 52.1811 24.1211 53.2023 28.919 53.2024C33.6366 53.2024 38.2653 52.2512 42.6769 50.3752C45.9437 48.704 49.038 46.1631 50.5647 43.897C51.7509 42.147 52.6086 40.2757 53.1152 38.3335C53.3851 37.2993 53.5955 35.6516 53.473 33.9104C52.5085 34.5517 50.9892 35.4777 48.9316 36.4796Z" fill="#336AEA"/>
<path d="M32.2043 39.3522C39.3018 38.3641 44.6923 36.2617 47.9645 34.6757C50.6845 33.3573 52.4311 32.1632 53.1079 31.6709C52.4358 29.178 50.5798 25.264 48.8762 22.8287C44.0161 15.8806 38.7739 14.0962 36.0817 13.6515C35.0537 13.4816 34.231 13.3831 33.0671 13.3831C31.9811 13.3831 30.6377 13.4715 28.8392 13.6617C27.0362 13.8525 25.0277 14.3243 22.6986 15.1045C19.4287 16.1998 16.471 17.9181 14.1449 20.0734L14.0672 20.1457C13.7208 20.4662 13.0013 21.1324 12.1743 22.1865C12.0724 22.3286 10.6072 24.4287 9.43695 27.6459C8.55905 30.0595 8.61598 33.5781 8.61598 33.6132V33.6231C8.61598 34.4439 8.64579 35.264 8.73649 36.0774C8.73801 36.0903 8.71647 36.1034 8.7181 36.1163C8.72962 36.2177 8.73242 36.3188 8.73242 36.4198V36.4202C8.84885 36.9934 8.91393 37.5717 9.02967 38.1349C9.03107 38.1352 9.04003 38.145 9.04143 38.145H9.04504C10.7418 38.6106 20.8773 40.9289 32.2043 39.3522ZM41.928 20.5705C44.2621 20.5705 46.1546 22.4629 46.1546 24.7972C46.1546 27.1316 44.2622 29.0237 41.928 29.0237C39.5938 29.0237 37.7013 27.1315 37.7013 24.7972C37.7013 22.463 39.5938 20.5705 41.928 20.5705ZM21.9431 20.4C25.7158 20.4 28.7742 23.4584 28.7742 27.2308C28.7742 31.0035 25.7158 34.0617 21.9431 34.0617C18.1706 34.0617 15.1122 31.0035 15.1122 27.2308C15.1122 23.4583 18.1706 20.4 21.9431 20.4ZM8.76572 36.4493C8.83825 36.9999 8.93093 37.556 9.04632 38.1146C8.9307 37.556 8.83814 36.9999 8.76572 36.4493Z" fill="#336AEA"/>
</g>
<defs>
<clipPath id="clip0_1923_146">
<rect width="57" height="57" fill="white"/>
</clipPath>
</defs>
</svg>
