<svg width="57" height="57" viewBox="0 0 57 57" fill="none" xmlns="http://www.w3.org/2000/svg">
<path d="M12.9833 49.6829V27.1996L0 17.2246V44.9329C0 48.0996 1.58333 49.6829 4.75 49.6829" fill="#4285F4"/>
<path d="M12.3496 27.0413L28.4996 39.233L44.6496 27.0413V11.5247L28.4996 23.7163L12.3496 11.5247" fill="#EA4335"/>
<path d="M44.0166 49.6829V27.1996L56.9999 17.2246V44.9329C56.9999 48.0996 55.4166 49.6829 52.2499 49.6829" fill="#34A853"/>
<path d="M0 17.5414L12.9833 27.5164V11.9997L8.23333 8.35807C3.95833 5.03307 0 8.35807 0 12.4747" fill="#C5221F"/>
<path d="M56.9999 17.5414L44.0166 27.5164V11.9997L48.7666 8.35807C53.0416 5.03307 56.9999 8.35807 56.9999 12.4747" fill="#FBBC04"/>
</svg>
