<svg width="70" height="57" viewBox="0 0 70 57" fill="none" xmlns="http://www.w3.org/2000/svg">
<path d="M0 52.439C0 54.9583 2.05823 56.9989 4.59413 56.9989H4.66016C2.08543 56.9989 0 54.9583 0 52.439Z" fill="#FBBC05"/>
<path d="M39.4814 17.0996V29.0048L55.5317 16.0585V4.55987C55.5317 2.04056 53.4734 0 50.9376 0H16.1648L16.1338 17.0996H39.4814Z" fill="#FBBC05"/>
<path d="M39.4789 40.9149H16.0927L16.0654 57H50.9354C53.475 57 55.5295 54.9594 55.5295 52.4401V42.0587L39.4789 29.0098V40.9149Z" fill="#34A853"/>
<path d="M16.163 0L0 17.0996H16.1357L16.163 0Z" fill="#EA4335"/>
<path d="M0 40.9136V52.4387C0 54.9581 2.08543 56.9986 4.66016 56.9986H16.0661L16.093 40.9136H0Z" fill="#1967D2"/>
<path d="M16.1357 17.0994H0V40.9135H16.093L16.1357 17.0994Z" fill="#4285F4"/>
<path d="M69.642 48.3843V9.2455C68.737 4.05104 63.0399 10.0055 63.0399 10.0055L55.5332 16.0588V42.0537L66.2787 50.7897C70.1585 51.2989 69.642 48.3843 69.642 48.3843Z" fill="#34A853"/>
<path d="M39.4805 29.0045L55.5348 42.0572V16.0623L39.4805 29.0045Z" fill="#188038"/>
</svg>
