<svg width="57" height="57" viewBox="0 0 57 57" fill="none" xmlns="http://www.w3.org/2000/svg">
<path d="M5.6416 6.26465H51.3592V50.7353H5.6416V6.26465Z" fill="#0C0824"/>
<path d="M5.64122 6.26475H51.3588V50.7354H5.64122V6.26475ZM3.5625 52.8142H53.4375V4.18604H3.5625V52.8142ZM37.1872 24.136C35.5448 24.136 34.9837 24.9679 34.9837 25.6537C34.9837 26.4018 35.3578 26.9219 37.5612 28.0637C40.8245 29.6437 41.8362 31.1595 41.8362 33.3843C41.8362 36.7099 39.3015 38.4965 35.8726 38.4965C34.401 38.551 32.9384 38.2453 31.6118 37.6058C31.4658 37.5435 31.4462 37.4402 31.4462 37.2728V34.2143C31.4462 34.0059 31.5495 33.9436 31.6956 34.0487C32.9414 34.8498 34.3915 35.2752 35.8726 35.2742C37.5149 35.2742 38.2007 34.5884 38.2007 33.6533C38.2007 32.9051 37.7233 32.2407 35.6232 31.1595C32.6717 29.747 31.4462 28.3095 31.4462 25.9226C31.4462 23.2418 33.5445 21.0188 37.1818 21.0188C38.4479 20.9645 39.7122 21.1625 40.9011 21.6013C40.9695 21.6458 41.0249 21.7076 41.0616 21.7806C41.0982 21.8535 41.1147 21.9349 41.1095 22.0163V24.8663C41.1095 25.032 41.0062 25.1371 40.7977 25.0748C39.699 24.4422 38.4495 24.1191 37.1818 24.1396L37.1872 24.136ZM19.3141 26.6084C19.7915 26.6494 20.1655 26.6494 20.9974 26.6494C23.4288 26.6494 25.7141 25.7979 25.7141 22.4937C25.7141 19.8539 24.0718 18.5251 21.3091 18.5251C20.4773 18.5251 19.6882 18.5661 19.3141 18.5874V26.6084ZM15.6144 15.5647C15.6144 15.4186 15.9048 15.3153 16.0722 15.3153C17.4028 15.2529 19.3764 15.212 21.4338 15.212C27.1908 15.212 29.4352 18.3701 29.4352 22.4029C29.4352 27.6807 25.6108 29.9465 20.9154 29.9465C20.1263 29.9465 19.8556 29.9055 19.2945 29.9055V37.8855C19.2945 38.0512 19.2322 38.1349 19.0451 38.1349H15.8656C15.6999 38.1349 15.6162 38.0725 15.6162 37.8855V15.5736L15.6144 15.5647Z" fill="#31C5F0"/>
</svg>
