<svg width="57" height="57" viewBox="0 0 57 57" fill="none" xmlns="http://www.w3.org/2000/svg">
<g clip-path="url(#clip0_1919_118)">
<path fill-rule="evenodd" clip-rule="evenodd" d="M28.4917 0C12.7802 0 0 12.7838 0 28.4997C0 34.7325 2.01001 40.5128 5.42688 45.2045L1.87576 55.7933L12.8303 52.2922C17.3358 55.2745 22.7126 57 28.5083 57C44.2198 57 57 44.2158 57 28.5003C57 12.7843 44.2198 0.000471115 28.5083 0.000471115L28.4917 0ZM20.5353 14.4766C19.9826 13.1531 19.5638 13.103 18.7266 13.0689C18.4416 13.0524 18.1239 13.0358 17.7717 13.0358C16.6825 13.0358 15.5437 13.3541 14.8569 14.0577C14.0197 14.9121 11.9425 16.9057 11.9425 20.994C11.9425 25.0824 14.924 29.0364 15.3258 29.5897C15.7446 30.142 21.1384 38.6535 29.5133 42.1224C36.0624 44.8366 38.0058 44.585 39.4963 44.2668C41.6737 43.7977 44.4042 42.1886 45.0911 40.2456C45.778 38.3017 45.7779 36.6429 45.5765 36.2911C45.3756 35.9393 44.8225 35.7388 43.9853 35.3194C43.1481 34.9004 39.0775 32.8898 38.3069 32.6217C37.553 32.337 36.833 32.4377 36.2638 33.2421C35.4597 34.3646 34.6727 35.5043 34.0359 36.1908C33.5334 36.7271 32.7122 36.7942 32.0258 36.5091C31.1045 36.1242 28.5253 35.2186 25.3424 32.3871C22.88 30.1926 21.2051 27.4618 20.7196 26.6409C20.2337 25.8035 20.6695 25.3169 21.0543 24.8649C21.4731 24.3452 21.875 23.9768 22.2938 23.4907C22.7127 23.0051 22.9471 22.7536 23.2152 22.1838C23.5002 21.631 23.2988 21.0612 23.0979 20.6422C22.897 20.2233 21.2221 16.1349 20.5353 14.4766Z" fill="#67C15E"/>
</g>
<defs>
<clipPath id="clip0_1919_118">
<rect width="57" height="57" fill="white"/>
</clipPath>
</defs>
</svg>
